opsz8.ufo
<glyph name="zero" format="2">
	<unicode hex="0030"/>
	<advance width="1168"/>
	<outline>
		<contour>
			<point x="74" y="742.0341796875" type="qcurve" smooth="yes"/>
			<point x="76" y="1113.2751464844"/>
			<point x="329.0473632812" y="1512.0043945312"/>
			<point x="585.2724609375" y="1512.0043945312" type="qcurve" smooth="yes"/>
			<point x="843.078125" y="1512.0043945312"/>
			<point x="1094.10546875" y="1126.2431640625"/>
			<point x="1094.10546875" y="750.0021972656" type="qcurve" smooth="yes"/>
			<point x="1094.10546875" y="373.6333007812"/>
			<point x="847.9753417969" y="-30"/>
			<point x="591.7119140625" y="-30" type="qcurve" smooth="yes"/>
			<point x="334.466796875" y="-30"/>
			<point x="72" y="370.8251953125"/>
		</contour>
		<contour>
			<point x="254.8310546875" y="768.9382324219" type="qcurve" smooth="yes"/>
			<point x="259" y="481"/>
			<point x="425.9824829102" y="81.2271118164"/>
			<point x="583.2724609375" y="81.2271118164" type="qcurve" smooth="yes"/>
			<point x="743.5624389648" y="81.2271118164"/>
			<point x="917" y="447"/>
			<point x="913.2744140625" y="745.0341796875" type="qcurve" smooth="yes"/>
			<point x="917" y="1027"/>
			<point x="737.0018920898" y="1389.4915161133"/>
			<point x="586.7119140625" y="1389.4915161133" type="qcurve" smooth="yes"/>
			<point x="425.4219360352" y="1389.4915161133"/>
			<point x="259" y="1060"/>
		</contour>
	</outline>
</glyph>
<glyph name="one" format="2">
	<unicode hex="0031"/>
	<advance width="1004"/>
	<outline>
		<contour>
			<point x="192.3337402344" y="0" type="line"/>
			<point x="192.3337402344" y="94" type="line"/>
			<point x="450.33984375" y="129" type="line"/>
			<point x="450.33984375" y="751.1215820312" type="line"/>
			<point x="448.33984375" y="1343.4913330078" type="line"/>
			<point x="122" y="1377.4913330078" type="line"/>
			<point x="122" y="1482.0043945312" type="line"/>
			<point x="599.2458496094" y="1505.0043945312" type="line"/>
			<point x="631.2458496094" y="1470.0043945312" type="line"/>
			<point x="625.2458496094" y="751.1215820312" type="line"/>
			<point x="625.2458496094" y="129" type="line"/>
			<point x="873.251953125" y="94" type="line"/>
			<point x="873.251953125" y="0" type="line"/>
		</contour>
	</outline>
</glyph>
<glyph name="two" format="2">
	<unicode hex="0032"/>
	<advance width="1120"/>
	<outline>
		<contour>
			<point x="51" y="0" type="line"/>
			<point x="51" y="82.0770263672" type="line"/>
			<point x="70.1569824219" y="198.9936523438"/>
			<point x="264.2744140625" y="475.6022949219"/>
			<point x="473.1550292969" y="630.6767578125" type="qcurve" smooth="yes"/>
			<point x="671.5029296875" y="775.3162231445"/>
			<point x="833.4270019531" y="1016.6713256836"/>
			<point x="833.4270019531" y="1145.871887207" type="qcurve" smooth="yes"/>
			<point x="833.4270019531" y="1260.8472900391"/>
			<point x="671.607421875" y="1387.5772094727"/>
			<point x="555.0825195312" y="1387.5772094727" type="qcurve" smooth="yes"/>
			<point x="432.2377929688" y="1387.5772094727"/>
			<point x="230.017578125" y="1305.3690185547"/>
			<point x="136" y="1217.6900634766" type="qcurve"/>
			<point x="53" y="1288.2426757812" type="line"/>
			<point x="127.6801757812" y="1369.9321289062"/>
			<point x="381.2026367188" y="1512.0043945312"/>
			<point x="581.2856445312" y="1512.0043945312" type="qcurve" smooth="yes"/>
			<point x="759.453125" y="1512.0043945312"/>
			<point x="1035.0803222656" y="1303.8244018555"/>
			<point x="1035.0803222656" y="1104.6466674805" type="qcurve" smooth="yes"/>
			<point x="1035.0803222656" y="889.6530151367"/>
			<point x="726.4385375977" y="606.0738525391"/>
			<point x="571.3018188477" y="507.8314208984" type="qcurve" smooth="yes"/>
			<point x="403.331237793" y="409.2833862305"/>
			<point x="226.6408691406" y="243.1695556641"/>
			<point x="194.0726928711" y="163.3574829102" type="qcurve"/>
			<point x="201.0726928711" y="150.1008300781" type="line"/>
			<point x="1057.0842285156" y="150.1008300781" type="line"/>
			<point x="1057.0842285156" y="0" type="line"/>
		</contour>
	</outline>
</glyph>
<glyph name="three" format="2">
	<unicode hex="0033"/>
	<advance width="1114"/>
	<outline>
		<contour>
			<point x="0" y="149" type="qcurve"/>
			<point x="89.1306152344" y="246.3990478516" type="line"/>
			<point x="196.6364746094" y="159.0043945312"/>
			<point x="369.5520019531" y="83.7986450195"/>
			<point x="492.7531738281" y="83.7986450195" type="qcurve" smooth="yes"/>
			<point x="641.0859375" y="83.7986450195"/>
			<point x="818.5544433594" y="239.6361694336"/>
			<point x="818.5544433594" y="400.4199829102" type="qcurve" smooth="yes"/>
			<point x="818.5544433594" y="566.8724975586"/>
			<point x="561.1989746094" y="727.0175170898"/>
			<point x="322.7341308594" y="727.0175170898" type="qcurve" smooth="yes"/>
			<point x="264.3544921875" y="727.0175170898" type="line"/>
			<point x="206.2470703125" y="856.0706787109" type="line"/>
			<point x="346.8386230469" y="861.9672851562" type="line" smooth="yes"/>
			<point x="553.2043457031" y="870.4856567383"/>
			<point x="785.59765625" y="1023.8946533203"/>
			<point x="785.59765625" y="1166.8430786133" type="qcurve" smooth="yes"/>
			<point x="785.59765625" y="1277.647277832"/>
			<point x="638.20703125" y="1394.3679199219"/>
			<point x="532.1623535156" y="1394.3679199219" type="qcurve" smooth="yes"/>
			<point x="411.6516113281" y="1394.3679199219"/>
			<point x="232.8388671875" y="1293.3973999023"/>
			<point x="145.5947265625" y="1205.7250976562" type="qcurve"/>
			<point x="57.14453125" y="1319.9357910156" type="line"/>
			<point x="126.9113769531" y="1397.4743652344"/>
			<point x="374.4631347656" y="1511.9404296875"/>
			<point x="534.35546875" y="1511.9404296875" type="qcurve" smooth="yes"/>
			<point x="721.7448730469" y="1511.9404296875"/>
			<point x="973.1760253906" y="1325.8999023438"/>
			<point x="973.1760253906" y="1178.6994628906" type="qcurve" smooth="yes"/>
			<point x="973.1760253906" y="1020.4990234375"/>
			<point x="795.9819335938" y="850.9724121094"/>
			<point x="629.2473144531" y="797.6823730469" type="qcurve"/>
			<point x="629.2473144531" y="790.7463378906" type="line"/>
			<point x="791.9819335938" y="764.5659179688"/>
			<point x="1009.5627441406" y="563.9936523438"/>
			<point x="1009.5627441406" y="390.8891601562" type="qcurve" smooth="yes"/>
			<point x="1009.5627441406" y="197.8806152344"/>
			<point x="699.3898925781" y="-26"/>
			<point x="491.70703125" y="-26" type="qcurve" smooth="yes"/>
			<point x="337.6677246094" y="-26"/>
			<point x="79.5588378906" y="83.3940429688"/>
		</contour>
	</outline>
</glyph>
<glyph name="four" format="2">
	<unicode hex="0034"/>
	<advance width="1193"/>
	<outline>
		<contour>
			<point x="6" y="551.5693359375" type="line"/>
			<point x="818.466796875" y="1511.6440429688" type="line"/>
			<point x="949.1970214844" y="1483.6440429688" type="line"/>
			<point x="968.3728027344" y="1468.6440429688" type="line"/>
			<point x="950.3728027344" y="496.5693359375" type="line"/>
			<point x="962.3728027344" y="129" type="line"/>
			<point x="1139.4670410156" y="94" type="line"/>
			<point x="1139.4670410156" y="0" type="line"/>
			<point x="568.5549316406" y="0" type="line"/>
			<point x="568.5549316406" y="94" type="line"/>
			<point x="787.466796875" y="129" type="line"/>
			<point x="798.466796875" y="494.5693359375" type="line"/>
			<point x="798.466796875" y="1331.4710693359" type="line"/>
			<point x="149.0501708984" y="526.0905761719" type="line"/>
			<point x="154.0501708984" y="515.0905761719" type="line"/>
			<point x="1218.1247558594" y="512.4538574219" type="line"/>
			<point x="1218.1247558594" y="440.5982055664" type="line"/>
			<point x="26" y="420.5982055664" type="line"/>
		</contour>
	</outline>
</glyph>
<glyph name="five" format="2">
	<unicode hex="0035"/>
	<advance width="1171"/>
	<outline>
		<contour>
			<point x="36" y="101" type="qcurve"/>
			<point x="96.197265625" y="214.5169067383" type="line"/>
			<point x="195.5036621094" y="163.2135620117"/>
			<point x="382.93359375" y="100.5702514648"/>
			<point x="525.7866210938" y="100.5702514648" type="qcurve" smooth="yes"/>
			<point x="703.3762207031" y="100.5702514648"/>
			<point x="912.8427734375" y="281.0717773438"/>
			<point x="912.8427734375" y="456.8807983398" type="qcurve" smooth="yes"/>
			<point x="912.8427734375" y="626.2646484375"/>
			<point x="649.9631347656" y="835.3811645508"/>
			<point x="327.689453125" y="815.3811645508" type="qcurve" smooth="yes"/>
			<point x="241.775390625" y="811.3811645508" type="line"/>
			<point x="156.775390625" y="892.7783203125" type="line"/>
			<point x="210.775390625" y="1459.5161132812" type="line"/>
			<point x="235.775390625" y="1492.5161132812" type="line"/>
			<point x="1005.4313964844" y="1492.5161132812" type="line"/>
			<point x="998.1494140625" y="1331.3874511719" type="line"/>
			<point x="321.376953125" y="1331.3874511719" type="line"/>
			<point x="311.9197998047" y="1320.3874511719" type="line"/>
			<point x="297.9456787109" y="912.0981445312" type="line"/>
			<point x="403.943359375" y="927.90625" type="line"/>
			<point x="747.1618652344" y="953.6374511719"/>
			<point x="1094.9821777344" y="710.9731445312"/>
			<point x="1094.9821777344" y="482.7932128906" type="qcurve" smooth="yes"/>
			<point x="1094.9821777344" y="240.8166503906"/>
			<point x="780.998046875" y="-26"/>
			<point x="550.3977050781" y="-26" type="qcurve" smooth="yes"/>
			<point x="351.2355957031" y="-26"/>
			<point x="119.4562988281" y="50.7790527344"/>
		</contour>
	</outline>
</glyph>
<glyph name="six" format="2">
	<unicode hex="0036"/>
	<advance width="1181"/>
	<outline>
		<contour>
			<point x="54" y="631.7697753906" type="qcurve" smooth="yes"/>
			<point x="54" y="967.3352050781"/>
			<point x="517.8583984375" y="1482.0690917969"/>
			<point x="1003.67578125" y="1554.0043945312" type="qcurve"/>
			<point x="971.9774780273" y="1398.1662597656" type="line"/>
			<point x="613.1326904297" y="1350.0648803711"/>
			<point x="233.6254882812" y="961.4366455078"/>
			<point x="235.6254882812" y="594.7697753906" type="qcurve" smooth="yes"/>
			<point x="237.6254882812" y="317.7663574219"/>
			<point x="464.7633666992" y="86.9989013672"/>
			<point x="626.2817382812" y="86.9989013672" type="qcurve" smooth="yes"/>
			<point x="787.9431762695" y="86.9989013672"/>
			<point x="995.1449584961" y="277.8009033203"/>
			<point x="995.3735351562" y="460.3692626953" type="qcurve" smooth="yes"/>
			<point x="995.6021118164" y="642.4721679688"/>
			<point x="809.6928100586" y="805.3690185547"/>
			<point x="647.4028320312" y="805.3690185547" type="qcurve" smooth="yes"/>
			<point x="553.7653198242" y="805.3690185547"/>
			<point x="451.9868164062" y="784.1642456055"/>
			<point x="409.8740234375" y="771.4602050781" type="qcurve"/>
			<point x="375.9379882812" y="830.9461669922" type="line"/>
			<point x="405.7561035156" y="855.4735107422"/>
			<point x="563.2827148438" y="928.3453369141"/>
			<point x="666.8781738281" y="928.3453369141" type="qcurve" smooth="yes"/>
			<point x="906.6984863281" y="928.3453369141"/>
			<point x="1167.3352050781" y="697.41796875"/>
			<point x="1167.3352050781" y="474.8293457031" type="qcurve" smooth="yes"/>
			<point x="1167.3352050781" y="257.5927734375"/>
			<point x="869.7426757812" y="-27"/>
			<point x="623.4650878906" y="-27" type="qcurve" smooth="yes"/>
			<point x="345.0661621094" y="-27"/>
			<point x="54" y="339.0285644531"/>
		</contour>
	</outline>
</glyph>
<glyph name="seven" format="2">
	<unicode hex="0037"/>
	<advance width="1159"/>
	<outline>
		<contour>
			<point x="45.5333862305" y="1116.2391357422" type="line"/>
			<point x="41.2248535156" y="1492.5161132812" type="line"/>
			<point x="1178.0266113281" y="1492.5161132812" type="line"/>
			<point x="1178.0266113281" y="1420.0727539062" type="line"/>
			<point x="719.2414550781" y="574.9018554688" type="line"/>
			<point x="525.8859863281" y="1" type="line"/>
			<point x="268.3312988281" y="1" type="line"/>
			<point x="268.3312988281" y="74" type="line"/>
			<point x="645.4138183594" y="726.7697753906" type="line"/>
			<point x="1006.3450317383" y="1312.9013671875" type="line"/>
			<point x="967.7520141602" y="1350.2375488281" type="line"/>
			<point x="201.0007324219" y="1350.2375488281" type="line"/>
			<point x="166.5341186523" y="1116.2391357422" type="line"/>
		</contour>
	</outline>
</glyph>
<glyph name="eight" format="2">
	<unicode hex="0038"/>
	<advance width="1163"/>
	<outline>
		<contour>
			<point x="-8" y="365.4523925781" type="qcurve" smooth="yes"/>
			<point x="-8" y="544.9074707031"/>
			<point x="263.7768554688" y="780.5305175781"/>
			<point x="449.7995605469" y="849.2221679688" type="qcurve"/>
			<point x="544.416809082" y="784.0075073242" type="line"/>
			<point x="373.4553833008" y="707.2872314453"/>
			<point x="170.1371459961" y="498.1373291016"/>
			<point x="170.1371459961" y="371.8989257812" type="qcurve" smooth="yes"/>
			<point x="170.1371459961" y="247.5552368164"/>
			<point x="388.5293579102" y="97.4847412109"/>
			<point x="580.2797241211" y="97.4847412109" type="qcurve" smooth="yes"/>
			<point x="759.0620727539" y="97.4847412109"/>
			<point x="994.9439086914" y="266.7013549805"/>
			<point x="994.9439086914" y="390.1993408203" type="qcurve" smooth="yes"/>
			<point x="994.9439086914" y="512.1737060547"/>
			<point x="800.7537841797" y="648.8430175781"/>
			<point x="585.1591796875" y="709.6995849609" type="qcurve" smooth="yes"/>
			<point x="295.9129638672" y="821.2702026367"/>
			<point x="97.6833496094" y="1016.5979614258"/>
			<point x="97.6833496094" y="1170.8063964844" type="qcurve" smooth="yes"/>
			<point x="97.6833496094" y="1328.1591796875"/>
			<point x="387.2756347656" y="1512.2602539062"/>
			<point x="577.6418457031" y="1512.2602539062" type="qcurve" smooth="yes"/>
			<point x="781.6906738281" y="1512.2602539062"/>
			<point x="1048.3483886719" y="1343.8364257812"/>
			<point x="1048.3483886719" y="1201.9831542969" type="qcurve" smooth="yes"/>
			<point x="1048.3483886719" y="1076.3591308594"/>
			<point x="861.9409179688" y="863.38671875"/>
			<point x="695.8039550781" y="778.1301269531" type="qcurve"/>
			<point x="582.7185668945" y="842.1276855469" type="line"/>
			<point x="731.8630371094" y="912.9365234375"/>
			<point x="886.1718139648" y="1076.8843994141"/>
			<point x="886.1718139648" y="1171.9833374023" type="qcurve" smooth="yes"/>
			<point x="886.1718139648" y="1263.1190795898"/>
			<point x="717.3345336914" y="1367.2927856445"/>
			<point x="583.0522460938" y="1367.2927856445" type="qcurve" smooth="yes"/>
			<point x="444.6110229492" y="1367.2927856445"/>
			<point x="257.9652099609" y="1237.412109375"/>
			<point x="257.9652099609" y="1167.5399780273" type="qcurve" smooth="yes"/>
			<point x="257.9652099609" y="1079.760925293"/>
			<point x="404.3397216797" y="963.4213256836"/>
			<point x="672.5135498047" y="859.9960327148" type="qcurve" smooth="yes"/>
			<point x="901.0579833984" y="783.5758666992"/>
			<point x="1172.1098632812" y="570.9633789062"/>
			<point x="1172.1098632812" y="390.6435546875" type="qcurve" smooth="yes"/>
			<point x="1172.1098632812" y="225.232421875"/>
			<point x="846.7780761719" y="-26"/>
			<point x="596.3957519531" y="-26" type="qcurve" smooth="yes"/>
			<point x="333.4975585938" y="-26"/>
			<point x="-8" y="200.0075683594"/>
		</contour>
	</outline>
</glyph>
<glyph name="nine" format="2">
	<unicode hex="0039"/>
	<advance width="1180"/>
	<outline>
		<contour>
			<point x="34" y="1012.5949707031" type="qcurve" smooth="yes"/>
			<point x="34" y="1229.4116210938"/>
			<point x="339.0065917969" y="1511.9724121094"/>
			<point x="579.1013183594" y="1511.9724121094" type="qcurve" smooth="yes"/>
			<point x="845.9897460938" y="1511.9724121094"/>
			<point x="1146.0168457031" y="1162.8852539062"/>
			<point x="1146.0168457031" y="855.2346191406" type="qcurve" smooth="yes"/>
			<point x="1146.0168457031" y="527.794921875"/>
			<point x="683.8623046875" y="3.5766601562"/>
			<point x="196.1354980469" y="-69.708984375" type="qcurve"/>
			<point x="228.7127075195" y="85.035949707" type="line"/>
			<point x="587.1516723633" y="131.3795166016"/>
			<point x="965.2607421875" y="526.6786499023"/>
			<point x="963.2607421875" y="892.2026367188" type="qcurve" smooth="yes"/>
			<point x="961.2607421875" y="1168.4060058594"/>
			<point x="743.9746704102" y="1409.6309204102"/>
			<point x="576.3759765625" y="1409.6309204102" type="qcurve" smooth="yes"/>
			<point x="415.6702270508" y="1409.6309204102"/>
			<point x="204.8310546875" y="1207.6604614258"/>
			<point x="204.8310546875" y="1024.3493652344" type="qcurve" smooth="yes"/>
			<point x="204.8310546875" y="841.3321533203"/>
			<point x="422.151184082" y="678.9489746094"/>
			<point x="576.9555053711" y="678.9489746094" type="qcurve" smooth="yes"/>
			<point x="646.2070922852" y="678.9489746094"/>
			<point x="749.3333740234" y="699.5816650391"/>
			<point x="789.7951660156" y="710.4095458984" type="qcurve"/>
			<point x="823.8271484375" y="646.0927734375" type="line"/>
			<point x="794.7993164062" y="625.3107910156"/>
			<point x="643.6630859375" y="549.4294433594"/>
			<point x="525.1242675781" y="549.5322265625" type="qcurve" smooth="yes"/>
			<point x="294.3283691406" y="549.8405761719"/>
			<point x="34" y="788.4836425781"/>
		</contour>
	</outline>
</glyph>
<glyph name="B" format="2">
	<unicode hex="0042"/>
	<advance width="1268"/>
	<outline>
		<contour>
			<point x="82" y="0" type="line"/>
			<point x="82" y="100" type="line"/>
			<point x="290" y="136" type="line"/>
			<point x="292" y="784" type="line"/>
			<point x="290" y="1352" type="line"/>
			<point x="82" y="1386" type="line"/>
			<point x="82" y="1500" type="line"/>
			<point x="685.2180175781" y="1500" type="line" smooth="yes"/>
			<point x="895.2591552734" y="1500"/>
			<point x="1099.5213623047" y="1315"/>
			<point x="1099.5213623047" y="1172" type="qcurve" smooth="yes"/>
			<point x="1099.5213623047" y="1037"/>
			<point x="976.0200195312" y="854"/>
			<point x="860.8200683594" y="830" type="qcurve"/>
			<point x="860.8200683594" y="823" type="line"/>
			<point x="999.3204345703" y="794"/>
			<point x="1191.5213623047" y="604"/>
			<point x="1191.5213623047" y="433" type="qcurve" smooth="yes"/>
			<point x="1191.5213623047" y="246"/>
			<point x="927.7600097656" y="0"/>
			<point x="704.0178222656" y="0" type="qcurve" smooth="yes"/>
		</contour>
		<contour>
			<point x="469.0107421875" y="142.2109985352" type="line"/>
			<point x="512.0107421875" y="122.2109985352" type="line"/>
			<point x="644.0107421875" y="122.2109985352" type="line" smooth="yes"/>
			<point x="830.0107421875" y="122.2109985352"/>
			<point x="1006.0107421875" y="283.8073120117"/>
			<point x="1006.0107421875" y="434.950012207" type="qcurve" smooth="yes"/>
			<point x="1006.0107421875" y="574.9498901367"/>
			<point x="853.0107421875" y="734.9412231445"/>
			<point x="710.0107421875" y="734.9412231445" type="qcurve" smooth="yes"/>
			<point x="467.0107421875" y="734.9412231445" type="line"/>
			<point x="467.0107421875" y="721.9412231445" type="line"/>
		</contour>
		<contour>
			<point x="468.0107421875" y="876.0261230469" type="line"/>
			<point x="467.0107421875" y="854.0261230469" type="line"/>
			<point x="634.0107421875" y="854.0261230469" type="line" smooth="yes"/>
			<point x="776.0107421875" y="854.0261230469"/>
			<point x="920.0107421875" y="993.2952880859"/>
			<point x="920.0107421875" y="1128.6217041016" type="qcurve" smooth="yes"/>
			<point x="920.0107421875" y="1246.51953125"/>
			<point x="780.0107421875" y="1361.2042236328"/>
			<point x="644.0107421875" y="1361.2042236328" type="qcurve" smooth="yes"/>
			<point x="500.0107421875" y="1361.2042236328" type="line"/>
			<point x="471.0107421875" y="1343.2042236328" type="line"/>
		</contour>
	</outline>
	<anchor name="bottom" x="614" y="0"/>
	<anchor name="top" x="614" y="1500"/>
</glyph>
<glyph name="C" format="2">
	<unicode hex="0043"/>
	<advance width="1445"/>
	<outline>
		<contour>
			<point x="80" y="699" type="qcurve" smooth="yes"/>
			<point x="80" y="1069.0004882812"/>
			<point x="509.7733154297" y="1520"/>
			<point x="816.8106689453" y="1520" type="qcurve" smooth="yes"/>
			<point x="950.3450927734" y="1520"/>
			<point x="1165.876159668" y="1466"/>
			<point x="1225.5426025391" y="1420" type="qcurve"/>
			<point x="1254.5426025391" y="1501" type="line"/>
			<point x="1340.2119140625" y="1501" type="line"/>
			<point x="1340.2119140625" y="1053.4455566406" type="line"/>
			<point x="1230.1310424805" y="1053.4455566406" type="line"/>
			<point x="1188.5426025391" y="1239.7390136719" type="line" smooth="yes"/>
			<point x="1173.5426025391" y="1308.2672729492"/>
			<point x="1005.878112793" y="1392.2911376953"/>
			<point x="853.2116088867" y="1392.2911376953" type="qcurve" smooth="yes"/>
			<point x="599.2116088867" y="1392.2911376953"/>
			<point x="267.2119140625" y="1054.8977050781"/>
			<point x="269.2119140625" y="743" type="qcurve" smooth="yes"/>
			<point x="271.2119140625" y="443.3267822266"/>
			<point x="591.2119140625" y="114.5001220703"/>
			<point x="823.2119140625" y="114.5001220703" type="qcurve" smooth="yes"/>
			<point x="1022.2119140625" y="114.5001220703"/>
			<point x="1271.4683837891" y="236.3805541992"/>
			<point x="1335.6444702148" y="323.506652832" type="qcurve"/>
			<point x="1439.2119140625" y="245" type="line"/>
			<point x="1335.2119140625" y="111"/>
			<point x="1021.2119140625" y="-30"/>
			<point x="830.6081542969" y="-30" type="qcurve" smooth="yes"/>
			<point x="491.2043457031" y="-30"/>
			<point x="80" y="382.0999755859"/>
		</contour>
	</outline>
	<anchor name="bottom" x="836" y="0"/>
	<anchor name="top" x="836" y="1500"/>
</glyph>
<glyph name="F" format="2">
	<unicode hex="0046"/>
	<advance width="1114"/>
	<outline>
		<contour>
			<point x="82" y="0" type="line"/>
			<point x="82" y="100" type="line"/>
			<point x="290" y="137" type="line"/>
			<point x="292" y="760" type="line"/>
			<point x="290" y="1352" type="line"/>
			<point x="82" y="1386" type="line"/>
			<point x="82" y="1500" type="line"/>
			<point x="1100.9138183594" y="1500" type="line"/>
			<point x="1100.9138183594" y="1145.4430541992" type="line"/>
			<point x="998.9107666016" y="1145.4430541992" type="line"/>
			<point x="963.9107666016" y="1379.7194213867" type="line"/>
			<point x="509.9107666016" y="1379.7194213867" type="line"/>
			<point x="470.9107666016" y="1359.7194213867" type="line"/>
			<point x="468.9107666016" y="760" type="line"/>
			<point x="470.9107666016" y="132" type="line"/>
			<point x="698.9107666016" y="100" type="line"/>
			<point x="698.9107666016" y="0" type="line"/>
		</contour>
		<contour>
			<point x="385.9041748047" y="708.2999267578" type="line"/>
			<point x="385.9041748047" y="807.6500854492" type="line"/>
			<point x="825.2445068359" y="814.6500854492" type="line"/>
			<point x="860.2445068359" y="976.137512207" type="line"/>
			<point x="954.9138183594" y="976.137512207" type="line"/>
			<point x="954.9138183594" y="528.8426513672" type="line"/>
			<point x="860.2445068359" y="528.8426513672" type="line"/>
			<point x="825.2445068359" y="701.2999267578" type="line"/>
		</contour>
	</outline>
	<anchor name="bottom" x="578" y="0"/>
	<anchor name="top" x="622" y="1500"/>
</glyph>
<glyph name="K" format="2">
	<unicode hex="004B"/>
	<advance width="1456"/>
	<outline>
		<contour>
			<point x="82" y="0" type="line"/>
			<point x="82" y="100" type="line"/>
			<point x="290" y="135" type="line"/>
			<point x="292" y="754" type="line"/>
			<point x="290" y="1352" type="line"/>
			<point x="82" y="1386" type="line"/>
			<point x="82" y="1500" type="line"/>
			<point x="677.9107666016" y="1500" type="line"/>
			<point x="677.9107666016" y="1386" type="line"/>
			<point x="469.9107666016" y="1352" type="line"/>
			<point x="467.9107666016" y="754" type="line"/>
			<point x="469.9107666016" y="135" type="line"/>
			<point x="677.9107666016" y="100" type="line"/>
			<point x="677.9107666016" y="0" type="line"/>
		</contour>
		<contour>
			<point x="392.3060302734" y="517.0302124023" type="line"/>
			<point x="392.3060302734" y="653.3112792969" type="line"/>
			<point x="1026.2390136719" y="1348" type="line"/>
			<point x="871.2390136719" y="1386" type="line"/>
			<point x="871.2390136719" y="1500" type="line"/>
			<point x="1376.0543823242" y="1500" type="line"/>
			<point x="1376.0543823242" y="1386" type="line"/>
			<point x="1179.0543823242" y="1338" type="line"/>
			<point x="727.8638916016" y="866.3922119141" type="line"/>
			<point x="690.2645263672" y="828.3133544922" type="line"/>
		</contour>
		<contour>
			<point x="623.1916503906" y="828.8352050781" type="line"/>
			<point x="733.3601074219" y="942.859375" type="line"/>
			<point x="1318.3297119141" y="135" type="line"/>
			<point x="1511.3297119141" y="100" type="line"/>
			<point x="1511.3297119141" y="0" type="line"/>
			<point x="943.1182861328" y="0" type="line"/>
			<point x="943.1182861328" y="100" type="line"/>
			<point x="1111.1182861328" y="135" type="line"/>
		</contour>
	</outline>
	<anchor name="bottom" x="812" y="0"/>
	<anchor name="top" x="770" y="1500"/>
</glyph>
<glyph name="O" format="2">
	<unicode hex="004F"/>
	<advance width="1662"/>
	<outline>
		<contour>
			<point x="80" y="737" type="qcurve" smooth="yes"/>
			<point x="80" y="1068"/>
			<point x="489.1065673828" y="1520"/>
			<point x="831.2119140625" y="1520" type="qcurve" smooth="yes"/>
			<point x="1173.3172607422" y="1520"/>
			<point x="1582.423828125" y="1097"/>
			<point x="1582.423828125" y="752" type="qcurve" smooth="yes"/>
			<point x="1582.423828125" y="423"/>
			<point x="1177.1173095703" y="-31"/>
			<point x="835.2119140625" y="-31" type="qcurve" smooth="yes"/>
			<point x="501.4067382812" y="-31"/>
			<point x="80" y="396"/>
		</contour>
		<contour>
			<point x="270.2119140625" y="769" type="qcurve" smooth="yes"/>
			<point x="270.2119140625" y="478.5716552734"/>
			<point x="582.2119140625" y="103.8088378906"/>
			<point x="833.2119140625" y="103.8088378906" type="qcurve" smooth="yes"/>
			<point x="1106.2119140625" y="103.8088378906"/>
			<point x="1392.2119140625" y="437.1022949219"/>
			<point x="1392.2119140625" y="745" type="qcurve" smooth="yes"/>
			<point x="1392.2119140625" y="1018.4283447266"/>
			<point x="1086.2119140625" y="1376.3107299805"/>
			<point x="833.2119140625" y="1376.3107299805" type="qcurve" smooth="yes"/>
			<point x="560.2119140625" y="1376.3107299805"/>
			<point x="270.2119140625" y="1050.9997558594"/>
		</contour>
	</outline>
	<anchor name="bottom" x="832" y="0"/>
	<anchor name="center" x="832" y="750"/>
	<anchor name="ogonek" x="1064" y="0"/>
	<anchor name="top" x="832" y="1500"/>
	<anchor name="topright" x="1028" y="1500"/>
	<anchor name="tonos" x="140" y="1500"/>
	<anchor name="_yu_dash" x="169" y="755"/>
</glyph>
<glyph name="f" format="2">
	<unicode hex="0066"/>
	<advance width="638"/>
	<outline>
		<contour>
			<point x="54" y="0" type="line"/>
			<point x="54" y="80.994140625" type="line"/>
			<point x="222" y="115.994140625" type="line"/>
			<point x="228" y="548.9879150391" type="line"/>
			<point x="228" y="852.7113647461" type="line"/>
			<point x="54" y="854.7113647461" type="line"/>
			<point x="54" y="929.5602416992" type="line"/>
			<point x="229" y="967.5602416992" type="line"/>
			<point x="227" y="1279.9078369141" type="line" smooth="yes"/>
			<point x="224.8146972656" y="1383.7733154297"/>
			<point x="384.4604492188" y="1539"/>
			<point x="481.470703125" y="1539" type="qcurve" smooth="yes"/>
			<point x="524.0017089844" y="1539"/>
			<point x="616.3885498047" y="1516.4768066406"/>
			<point x="645.7873535156" y="1508.7008056641" type="qcurve" smooth="yes"/>
			<point x="673.0844726562" y="1498.0419921875" type="line"/>
			<point x="641.7653808594" y="1407.0876464844" type="line"/>
			<point x="629.4860839844" y="1409.2873535156" type="line" smooth="yes"/>
			<point x="612.4875488281" y="1412.5268554688"/>
			<point x="546.7292480469" y="1426.2866210938"/>
			<point x="522.3696289062" y="1426.2866210938" type="qcurve" smooth="yes"/>
			<point x="461.0895996094" y="1426.2866210938"/>
			<point x="391.2266845703" y="1343.8864746094"/>
			<point x="391.8095703125" y="1266.0065917969" type="qcurve" smooth="yes"/>
			<point x="392.3696289062" y="967.5602416992" type="line"/>
			<point x="630.3696289062" y="967.5602416992" type="line"/>
			<point x="630.3696289062" y="854.7113647461" type="line"/>
			<point x="391.3696289062" y="854.7113647461" type="line"/>
			<point x="391.3696289062" y="548.9879150391" type="line"/>
			<point x="395.3696289062" y="115.994140625" type="line"/>
			<point x="601.3696289062" y="80.994140625" type="line"/>
			<point x="601.3696289062" y="0" type="line"/>
		</contour>
	</outline>
	<anchor name="bottom" x="314" y="0"/>
	<anchor name="top" x="314" y="1536"/>
</glyph>
<glyph name="h" format="2">
	<unicode hex="0068"/>
	<advance width="1262"/>
	<outline>
		<contour>
			<point x="76" y="0" type="line"/>
			<point x="76" y="80.994140625" type="line"/>
			<point x="218" y="115.994140625" type="line"/>
			<point x="220" y="548.9879150391" type="line"/>
			<point x="218" y="1375.005859375" type="line"/>
			<point x="52" y="1405.005859375" type="line"/>
			<point x="52" y="1500" type="line"/>
			<point x="330.00390625" y="1534" type="line"/>
			<point x="362.00390625" y="1534" type="line"/>
			<point x="390.00390625" y="1502" type="line"/>
			<point x="388.00390625" y="867.0279541016" type="line"/>
			<point x="445.8017578125" y="937.0184326172"/>
			<point x="632.0439453125" y="1021.9993896484"/>
			<point x="731.2611083984" y="1021.9993896484" type="qcurve" smooth="yes"/>
			<point x="890.0744628906" y="1021.9993896484"/>
			<point x="1048.0078125" y="875.4585571289"/>
			<point x="1048.0078125" y="746.1384277344" type="qcurve" smooth="yes"/>
			<point x="1048.0078125" y="676.0004882812"/>
			<point x="1043.0078125" y="559.1063232422"/>
			<point x="1043.0078125" y="548.9879150391" type="qcurve" smooth="yes"/>
			<point x="1048.0078125" y="115.994140625" type="line"/>
			<point x="1196.0078125" y="80.994140625" type="line"/>
			<point x="1196.0078125" y="0" type="line"/>
			<point x="718.00390625" y="0" type="line"/>
			<point x="718.00390625" y="80.994140625" type="line"/>
			<point x="876.00390625" y="115.994140625" type="line"/>
			<point x="878.00390625" y="595.1390380859" type="line"/>
			<point x="878.00390625" y="716.1400756836" type="line" smooth="yes"/>
			<point x="878.00390625" y="770.7561645508"/>
			<point x="776.00390625" y="890.1070556641"/>
			<point x="681.00390625" y="890.1070556641" type="qcurve" smooth="yes"/>
			<point x="602.00390625" y="890.1070556641"/>
			<point x="440.00390625" y="818.5276489258"/>
			<point x="388.00390625" y="735.3892211914" type="qcurve"/>
			<point x="388.00390625" y="595.1390380859" type="line"/>
			<point x="390.00390625" y="115.994140625" type="line"/>
			<point x="528.00390625" y="80.994140625" type="line"/>
			<point x="528.00390625" y="0" type="line"/>
		</contour>
	</outline>
	<anchor name="bottom" x="629" y="0"/>
	<anchor name="center" x="347" y="1202"/>
	<anchor name="top" x="304" y="1534"/>
</glyph>
<glyph name="l" format="2">
	<unicode hex="006C"/>
	<advance width="634"/>
	<outline>
		<contour>
			<point x="76" y="0" type="line"/>
			<point x="76" y="80.994140625" type="line"/>
			<point x="238" y="115.994140625" type="line"/>
			<point x="240" y="527" type="line"/>
			<point x="238" y="1375.005859375" type="line"/>
			<point x="52" y="1405.005859375" type="line"/>
			<point x="52" y="1500" type="line"/>
			<point x="350.00390625" y="1534" type="line"/>
			<point x="387.00390625" y="1532" type="line"/>
			<point x="410.00390625" y="1501" type="line"/>
			<point x="408.00390625" y="527" type="line"/>
			<point x="410.00390625" y="115.994140625" type="line"/>
			<point x="568.00390625" y="80.994140625" type="line"/>
			<point x="568.00390625" y="0" type="line"/>
		</contour>
	</outline>
	<anchor name="bottom" x="316" y="0"/>
	<anchor name="center" x="316" y="750"/>
	<anchor name="top" x="316" y="1534"/>
	<anchor name="topright" x="367" y="1000"/>
	<anchor name="centerright" x="746" y="680"/>
	<anchor name="yu_dash" x="321" y="500"/>
	<anchor name="liga" x="632" y="0"/>
</glyph>
<glyph name="r" format="2">
	<unicode hex="0072"/>
	<advance width="896"/>
	<outline>
		<contour>
			<point x="76" y="0" type="line"/>
			<point x="76" y="80.994140625" type="line"/>
			<point x="224" y="115.994140625" type="line"/>
			<point x="226" y="530.9154052734" type="line"/>
			<point x="224" y="840.7040405273" type="line"/>
			<point x="76" y="870.7040405273" type="line"/>
			<point x="76" y="965.6981811523" type="line"/>
			<point x="337.1239013672" y="999.6981811523" type="line"/>
			<point x="372.1239013672" y="972.6981811523" type="line"/>
			<point x="397.2248535156" y="839.6981811523" type="line"/>
			<point x="450.4077148438" y="902.6981811523"/>
			<point x="666.5165405273" y="1000.9993896484"/>
			<point x="781.7829589844" y="1000.6981811523" type="qcurve" smooth="yes"/>
			<point x="887.3981933594" y="1000.6981811523" type="line"/>
			<point x="887.3981933594" y="709.0956420898" type="line"/>
			<point x="780.1729125977" y="709.0956420898" type="line"/>
			<point x="746.1729125977" y="850.1900024414" type="line"/>
			<point x="671.0000610352" y="850.1900024414"/>
			<point x="463.3446655273" y="793.4202270508"/>
			<point x="393.3981933594" y="725.7388305664" type="qcurve"/>
			<point x="392.3981933594" y="530.9154052734" type="line"/>
			<point x="394.3981933594" y="115.994140625" type="line"/>
			<point x="564.3981933594" y="80.994140625" type="line"/>
			<point x="564.3981933594" y="0" type="line"/>
		</contour>
	</outline>
	<anchor name="bottom" x="432" y="0"/>
	<anchor name="top" x="486" y="1000"/>
</glyph>
<glyph name="s" format="2">
	<unicode hex="0073"/>
	<advance width="854"/>
	<outline>
		<contour>
			<point x="45.4377441406" y="4.7058105469" type="line"/>
			<point x="45.4377441406" y="312.0192260742" type="line"/>
			<point x="165.5386352539" y="312.0192260742" type="line"/>
			<point x="195.5386352539" y="166.430847168" type="line" smooth="yes"/>
			<point x="237.5488891602" y="134.3590698242"/>
			<point x="362.8927001953" y="89.430847168"/>
			<point x="432.63671875" y="89.430847168" type="qcurve" smooth="yes"/>
			<point x="537.5883178711" y="89.430847168"/>
			<point x="665.7879638672" y="192.4788208008"/>
			<point x="665.7879638672" y="270.8432006836" type="qcurve" smooth="yes"/>
			<point x="665.7879638672" y="355.4544677734"/>
			<point x="529.9920043945" y="410.763671875"/>
			<point x="369.3006591797" y="453.9246826172" type="qcurve" smooth="yes"/>
			<point x="203.431640625" y="498.8431396484"/>
			<point x="82" y="650.8842163086"/>
			<point x="82" y="756.1094360352" type="qcurve" smooth="yes"/>
			<point x="82" y="867.6669921875"/>
			<point x="253.8900756836" y="1021.3969726562"/>
			<point x="426.4977416992" y="1021.3969726562" type="qcurve" smooth="yes"/>
			<point x="492.6683349609" y="1021.3969726562"/>
			<point x="588.934387207" y="998.5988769531"/>
			<point x="626.7469482422" y="979.5988769531" type="qcurve"/>
			<point x="638.7469482422" y="994.6911621094" type="line"/>
			<point x="727.6186523438" y="994.6911621094" type="line"/>
			<point x="727.6186523438" y="754.00390625" type="line"/>
			<point x="608.7469482422" y="754.00390625" type="line"/>
			<point x="579.7469482422" y="873.7034912109" type="line" smooth="yes"/>
			<point x="541.7674560547" y="888.4487304688"/>
			<point x="455.3420410156" y="910.5922851562"/>
			<point x="410.2893676758" y="910.5922851562" type="qcurve" smooth="yes"/>
			<point x="317.3244018555" y="910.5922851562"/>
			<point x="217.5848388672" y="836.9194335938"/>
			<point x="217.5848388672" y="783.2269287109" type="qcurve" smooth="yes"/>
			<point x="217.5848388672" y="723.0215454102"/>
			<point x="312.5063476562" y="656.6493530273"/>
			<point x="475.7315673828" y="619.2203369141" type="qcurve" smooth="yes"/>
			<point x="623.772277832" y="584.2331542969"/>
			<point x="805.5366210938" y="437.4029541016"/>
			<point x="805.5366210938" y="292.6048583984" type="qcurve" smooth="yes"/>
			<point x="805.5366210938" y="163.2622070312"/>
			<point x="607.8475341797" y="-20"/>
			<point x="439.6968994141" y="-20" type="qcurve" smooth="yes"/>
			<point x="355.4893188477" y="-20"/>
			<point x="222.0497436523" y="16.6971435547"/>
			<point x="168.3094482422" y="50.7980957031" type="qcurve"/>
			<point x="135.5386352539" y="4.7058105469" type="line"/>
		</contour>
	</outline>
	<anchor name="bottom" x="468" y="0"/>
	<anchor name="top" x="416" y="1000"/>
</glyph>
<glyph name="t" format="2">
	<unicode hex="0074"/>
	<advance width="618"/>
	<outline>
		<contour>
			<point x="16" y="864.5841064453" type="line"/>
			<point x="16" y="936.2469482422" type="line"/>
			<point x="116" y="964.2469482422"/>
			<point x="223.9047851562" y="1121.5655517578"/>
			<point x="243.9047851562" y="1199.5655517578" type="qcurve"/>
			<point x="344.9029541016" y="1199.5655517578" type="line"/>
			<point x="365.9029541016" y="1171.5655517578" type="line"/>
			<point x="360.9029541016" y="965.5655517578" type="line"/>
			<point x="575.9029541016" y="965.5655517578" type="line"/>
			<point x="575.9029541016" y="864.5841064453" type="line"/>
			<point x="356.9029541016" y="864.5841064453" type="line"/>
			<point x="348.9029541016" y="536.9395751953" type="line"/>
			<point x="357.9029541016" y="222.3110961914" type="line" smooth="yes"/>
			<point x="359.5733032227" y="156.3110961914"/>
			<point x="407.9029541016" y="109.3110961914"/>
			<point x="485.9029541016" y="109.3110961914" type="qcurve" smooth="yes"/>
			<point x="602.9029541016" y="109.3110961914" type="line"/>
			<point x="602.9029541016" y="30" type="line"/>
			<point x="327.5733642578" y="-8" type="line"/>
			<point x="256.4476318359" y="-8"/>
			<point x="174" y="73.8990478516"/>
			<point x="174" y="184" type="qcurve" smooth="yes"/>
			<point x="181" y="536.9395751953" type="line"/>
			<point x="181" y="852.5841064453" type="line"/>
		</contour>
	</outline>
	<anchor name="bottom" x="322" y="0"/>
	<anchor name="center" x="312" y="622"/>
	<anchor name="top" x="322" y="1179"/>
	<anchor name="topright" x="540" y="1000"/>
</glyph>
